<svg id="visual" viewBox="0 0 1920 1080" width="1920" height="1080" xmlns="http://www.w3.org/2000/svg" xmlns:xlink="http://www.w3.org/1999/xlink" version="1.1"><rect x="0" y="0" width="1920" height="1080" fill="#002233"></rect><path d="M0 616L29.2 592.8C58.3 569.7 116.7 523.3 174.8 517C233 510.7 291 544.3 349.2 550.5C407.3 556.7 465.7 535.3 523.8 544.8C582 554.3 640 594.7 698.2 615.3C756.3 636 814.7 637 872.8 636.5C931 636 989 634 1047.2 623.5C1105.3 613 1163.7 594 1221.8 594.7C1280 595.3 1338 615.7 1396.2 601.3C1454.3 587 1512.7 538 1570.8 531.2C1629 524.3 1687 559.7 1745.2 583.7C1803.3 607.7 1861.7 620.3 1890.8 626.7L1920 633L1920 1081L1890.8 1081C1861.7 1081 1803.3 1081 1745.2 1081C1687 1081 1629 1081 1570.8 1081C1512.7 1081 1454.3 1081 1396.2 1081C1338 1081 1280 1081 1221.8 1081C1163.7 1081 1105.3 1081 1047.2 1081C989 1081 931 1081 872.8 1081C814.7 1081 756.3 1081 698.2 1081C640 1081 582 1081 523.8 1081C465.7 1081 407.3 1081 349.2 1081C291 1081 233 1081 174.8 1081C116.7 1081 58.3 1081 29.2 1081L0 1081Z" fill="#0066ff"></path><path d="M0 672L29.2 667.3C58.3 662.7 116.7 653.3 174.8 657.8C233 662.3 291 680.7 349.2 673.5C407.3 666.3 465.7 633.7 523.8 638.5C582 643.3 640 685.7 698.2 687.8C756.3 690 814.7 652 872.8 650.3C931 648.7 989 683.3 1047.2 699.3C1105.3 715.3 1163.7 712.7 1221.8 713.7C1280 714.7 1338 719.3 1396.2 700.3C1454.3 681.3 1512.7 638.7 1570.8 642.2C1629 645.7 1687 695.3 1745.2 715C1803.3 734.7 1861.7 724.3 1890.8 719.2L1920 714L1920 1081L1890.8 1081C1861.7 1081 1803.3 1081 1745.2 1081C1687 1081 1629 1081 1570.8 1081C1512.7 1081 1454.3 1081 1396.2 1081C1338 1081 1280 1081 1221.8 1081C1163.7 1081 1105.3 1081 1047.2 1081C989 1081 931 1081 872.8 1081C814.7 1081 756.3 1081 698.2 1081C640 1081 582 1081 523.8 1081C465.7 1081 407.3 1081 349.2 1081C291 1081 233 1081 174.8 1081C116.7 1081 58.3 1081 29.2 1081L0 1081Z" fill="#0051ea"></path><path d="M0 715L29.2 710.8C58.3 706.7 116.7 698.3 174.8 710C233 721.7 291 753.3 349.2 776.2C407.3 799 465.7 813 523.8 804.8C582 796.7 640 766.3 698.2 757C756.3 747.7 814.7 759.3 872.8 752C931 744.7 989 718.3 1047.2 729.7C1105.3 741 1163.7 790 1221.8 814.3C1280 838.7 1338 838.3 1396.2 836.5C1454.3 834.7 1512.7 831.3 1570.8 810.8C1629 790.3 1687 752.7 1745.2 754.3C1803.3 756 1861.7 797 1890.8 817.5L1920 838L1920 1081L1890.8 1081C1861.7 1081 1803.3 1081 1745.2 1081C1687 1081 1629 1081 1570.8 1081C1512.7 1081 1454.3 1081 1396.2 1081C1338 1081 1280 1081 1221.8 1081C1163.7 1081 1105.3 1081 1047.2 1081C989 1081 931 1081 872.8 1081C814.7 1081 756.3 1081 698.2 1081C640 1081 582 1081 523.8 1081C465.7 1081 407.3 1081 349.2 1081C291 1081 233 1081 174.8 1081C116.7 1081 58.3 1081 29.2 1081L0 1081Z" fill="#003cd4"></path><path d="M0 804L29.2 807.8C58.3 811.7 116.7 819.3 174.8 828C233 836.7 291 846.3 349.2 851.2C407.3 856 465.7 856 523.8 850C582 844 640 832 698.2 841.3C756.3 850.7 814.7 881.3 872.8 884.3C931 887.3 989 862.7 1047.2 855C1105.3 847.3 1163.7 856.7 1221.8 854.2C1280 851.7 1338 837.3 1396.2 832.3C1454.3 827.3 1512.7 831.7 1570.8 836.8C1629 842 1687 848 1745.2 860.8C1803.3 873.7 1861.7 893.3 1890.8 903.2L1920 913L1920 1081L1890.8 1081C1861.7 1081 1803.3 1081 1745.2 1081C1687 1081 1629 1081 1570.8 1081C1512.7 1081 1454.3 1081 1396.2 1081C1338 1081 1280 1081 1221.8 1081C1163.7 1081 1105.3 1081 1047.2 1081C989 1081 931 1081 872.8 1081C814.7 1081 756.3 1081 698.2 1081C640 1081 582 1081 523.8 1081C465.7 1081 407.3 1081 349.2 1081C291 1081 233 1081 174.8 1081C116.7 1081 58.3 1081 29.2 1081L0 1081Z" fill="#0025bf"></path><path d="M0 926L29.2 931.2C58.3 936.3 116.7 946.7 174.8 946.7C233 946.7 291 936.3 349.2 933.2C407.3 930 465.7 934 523.8 939.2C582 944.3 640 950.7 698.2 958.7C756.3 966.7 814.7 976.3 872.8 983.3C931 990.3 989 994.7 1047.2 987.7C1105.3 980.7 1163.7 962.3 1221.8 962.3C1280 962.3 1338 980.7 1396.2 977.7C1454.3 974.7 1512.7 950.3 1570.8 935.3C1629 920.3 1687 914.7 1745.2 916C1803.3 917.3 1861.7 925.7 1890.8 929.8L1920 934L1920 1081L1890.8 1081C1861.7 1081 1803.3 1081 1745.2 1081C1687 1081 1629 1081 1570.8 1081C1512.7 1081 1454.3 1081 1396.2 1081C1338 1081 1280 1081 1221.8 1081C1163.7 1081 1105.3 1081 1047.2 1081C989 1081 931 1081 872.8 1081C814.7 1081 756.3 1081 698.2 1081C640 1081 582 1081 523.8 1081C465.7 1081 407.3 1081 349.2 1081C291 1081 233 1081 174.8 1081C116.7 1081 58.3 1081 29.2 1081L0 1081Z" fill="#0005a9"></path></svg>